<svg version="1.1" xmlns="http://www.w3.org/2000/svg" viewBox="0 0 800.0000610351562 548.7999877929688" width="800.0000610351562" height="548.7999877929688" class="excalidraw-svg">
  <!-- svg-source:excalidraw -->
  
  <defs>
    <style class="style-fonts">
      
    </style>
    
  </defs>
  <rect x="0" y="0" width="800.0000610351562" height="548.7999877929688" fill="#ffffff"></rect><g stroke-linecap="round" transform="translate(129.20001220703125 10) rotate(0 129.60000610351562 119.19999694824219)"><path d="M32 0 C97.63 -2.3, 160.2 0.37, 227.2 0 M32 0 C97.18 0.78, 164.27 0.84, 227.2 0 M227.2 0 C247.47 -1.77, 260.97 9.65, 259.2 32 M227.2 0 C250.58 1.23, 261.26 8.8, 259.2 32 M259.2 32 C259.3 89.97, 257.12 146.35, 259.2 206.4 M259.2 32 C261.42 69.66, 261.29 109.17, 259.2 206.4 M259.2 206.4 C257.49 227.15, 249.8 240.2, 227.2 238.4 M259.2 206.4 C260.15 228.14, 249.76 238.6, 227.2 238.4 M227.2 238.4 C159.99 237.07, 92.28 236.87, 32 238.4 M227.2 238.4 C185.21 237.53, 144.26 237.91, 32 238.4 M32 238.4 C10.22 238, 1.52 228.58, 0 206.4 M32 238.4 C9.02 237.83, 1.21 226.46, 0 206.4 M0 206.4 C-3.3 142.13, -2.21 79.15, 0 32 M0 206.4 C1.36 143.29, -0.57 79.83, 0 32 M0 32 C1.13 10.4, 12.64 0.54, 32 0 M0 32 C-1.77 9.99, 10.97 1.02, 32 0" stroke="#1e1e1e" stroke-width="2" fill="none"></path></g><g stroke-linecap="round" transform="translate(10 44.40000915527344) rotate(0 124.39999389648438 127.20000457763672)"><path d="M177.52 13.2 C190.76 17.48, 204.14 28.73, 214.12 39.14 C224.1 49.55, 231.81 62.44, 237.4 75.64 C242.99 88.84, 246.61 103.86, 247.66 118.34 C248.71 132.82, 247.57 148.53, 243.71 162.5 C239.84 176.48, 232.68 190.71, 224.46 202.19 C216.25 213.67, 206.02 223.24, 194.43 231.39 C182.83 239.54, 168.46 247.28, 154.89 251.08 C141.32 254.88, 127.04 255.64, 113 254.19 C98.97 252.74, 83.6 248.65, 70.68 242.37 C57.76 236.1, 45.35 227.07, 35.49 216.54 C25.64 206.01, 17.39 192.52, 11.56 179.18 C5.73 165.85, 1.66 150.98, 0.52 136.53 C-0.62 122.08, 1.04 106.48, 4.7 92.47 C8.36 78.46, 14.29 64.31, 22.46 52.47 C30.63 40.62, 41.83 29.56, 53.72 21.4 C65.61 13.25, 79.86 7.01, 93.79 3.51 C107.71 0.01, 120.79 -2.63, 137.25 0.4 C153.72 3.43, 181.31 16.36, 192.57 21.7 C203.83 27.03, 205.96 30.68, 204.81 32.41 M88.87 3.71 C100.97 -2.3, 118.04 -1.41, 132.25 -0.03 C146.46 1.34, 161.06 6.11, 174.13 11.97 C187.19 17.83, 200.02 25.27, 210.63 35.13 C221.24 44.99, 231.76 58.23, 237.78 71.15 C243.8 84.07, 245.38 98.18, 246.73 112.65 C248.09 127.11, 248.88 143.57, 245.91 157.94 C242.94 172.31, 237.19 186.91, 228.91 198.88 C220.63 210.85, 207.92 221.22, 196.22 229.77 C184.53 238.32, 171.93 246.36, 158.72 250.19 C145.51 254.01, 131.18 253.83, 116.96 252.7 C102.74 251.56, 86.48 249.31, 73.4 243.39 C60.32 237.48, 48.58 227.11, 38.48 217.21 C28.38 207.31, 19.32 196.79, 12.8 184 C6.27 171.21, 0.82 155.15, -0.69 140.45 C-2.19 125.75, 0.28 109.96, 3.75 95.8 C7.23 81.63, 12.01 67.15, 20.17 55.45 C28.34 43.76, 41.15 33.87, 52.76 25.62 C64.36 17.38, 83.66 9.01, 89.82 5.98 C95.97 2.95, 88.99 5.74, 89.7 7.43" stroke="#1e1e1e" stroke-width="2" fill="none"></path></g><g transform="translate(72.4000244140625 21.199996948242188) rotate(0 223.99996948242188 258.7999954223633)" stroke="none"><path fill="#1e1e1e" d="M 3.06,-0.61 Q 3.06,-0.61 3.91,3.99 4.77,8.61 8.52,20.78 12.28,32.94 19.60,53.30 26.93,73.67 38.30,100.45 49.66,127.23 62.30,154.24 74.93,181.25 91.57,215.51 108.20,249.76 124.92,282.47 141.64,315.19 157.71,346.35 173.79,377.51 187.74,403.62 201.69,429.73 213.37,451.64 225.06,473.56 230.93,484.24 236.81,494.91 240.86,500.97 244.91,507.03 245.76,509.14 246.62,511.26 249.86,509.35 253.10,507.45 262.54,494.87 271.97,482.28 286.70,459.83 301.44,437.39 318.77,410.58 336.10,383.77 348.76,364.55 361.43,345.32 379.26,319.88 397.09,294.43 408.99,275.64 420.90,256.84 428.89,240.00 436.88,223.16 440.28,214.86 443.68,206.57 444.83,200.72 445.99,194.87 446.08,192.07 446.17,189.27 443.15,186.33 440.14,183.39 435.01,182.57 429.88,181.75 415.68,183.95 401.47,186.16 380.75,193.43 360.03,200.70 327.53,215.71 295.03,230.72 272.23,242.14 249.42,253.57 203.04,283.64 156.66,313.72 121.55,340.04 86.44,366.37 63.77,387.37 41.10,408.38 29.22,422.29 17.35,436.20 12.11,443.88 6.87,451.56 4.65,455.04 2.43,458.52 8.24,454.09 14.06,449.65 30.09,427.67 46.12,405.68 69.99,354.81 93.86,303.94 108.88,265.29 123.90,226.65 131.89,201.08 139.89,175.51 143.28,160.35 146.67,145.18 148.13,138.46 149.60,131.74 149.71,131.43 149.82,131.12 150.00,130.85 150.18,130.57 150.42,130.35 150.66,130.12 150.95,129.97 151.24,129.81 151.55,129.72 151.87,129.63 152.20,129.63 152.53,129.62 152.85,129.69 153.17,129.76 153.47,129.91 153.76,130.05 154.01,130.27 154.26,130.48 154.46,130.75 154.65,131.01 154.77,131.32 154.90,131.62 154.94,131.95 154.99,132.27 154.96,132.60 154.93,132.93 151.41,139.14 147.89,145.35 143.68,162.09 139.47,178.83 136.52,199.23 133.56,219.62 132.29,235.39 131.02,251.16 131.16,263.99 131.30,276.81 132.20,282.93 133.10,289.05 134.88,290.93 136.65,292.80 139.94,292.09 143.22,291.37 154.13,285.61 165.05,279.86 184.45,265.74 203.84,251.62 222.64,234.63 241.43,217.64 253.78,205.15 266.14,192.65 272.25,185.12 278.37,177.58 280.60,175.59 282.84,173.60 283.11,173.34 283.38,173.08 283.70,172.90 284.02,172.71 284.38,172.60 284.74,172.50 285.11,172.48 285.48,172.46 285.85,172.54 286.22,172.61 286.55,172.77 286.89,172.93 287.18,173.16 287.47,173.40 287.70,173.70 287.92,173.99 288.07,174.34 288.22,174.68 288.28,175.05 288.34,175.42 288.31,175.79 288.28,176.16 288.17,176.52 288.05,176.87 287.85,177.19 287.65,177.50 287.88,183.07 288.12,188.65 287.69,211.95 287.27,235.26 287.09,255.25 286.91,275.24 289.13,316.78 291.35,358.32 293.89,381.46 296.44,404.60 297.98,415.57 299.52,426.55 300.55,431.00 301.58,435.44 303.28,436.79 304.99,438.14 305.03,438.52 305.08,438.90 305.03,439.27 304.98,439.65 304.84,440.00 304.71,440.36 304.49,440.67 304.27,440.98 303.99,441.23 303.70,441.48 303.36,441.65 303.03,441.82 302.66,441.91 302.29,442.00 301.91,442.00 301.53,441.99 301.16,441.90 300.80,441.81 300.46,441.63 300.13,441.45 299.85,441.20 299.56,440.94 299.35,440.63 299.14,440.31 299.01,439.96 298.87,439.60 302.33,435.22 305.78,430.84 309.39,424.89 312.99,418.93 317.33,411.29 321.67,403.65 327.44,393.92 333.22,384.20 338.41,375.04 343.61,365.88 347.61,357.24 351.62,348.60 354.68,340.16 357.74,331.72 359.27,326.78 360.80,321.83 362.35,315.40 363.91,308.98 364.79,303.12 365.67,297.25 366.11,293.93 366.55,290.62 366.81,287.61 367.07,284.60 367.84,282.43 368.60,280.27 370.48,275.97 372.36,271.66 374.86,266.09 377.37,260.52 378.20,258.08 379.04,255.64 379.37,255.12 379.69,254.60 380.16,254.22 380.64,253.83 381.21,253.62 381.78,253.40 382.39,253.38 383.00,253.36 383.58,253.53 384.17,253.71 384.67,254.06 385.17,254.41 385.53,254.90 385.89,255.40 386.07,255.98 386.26,256.56 386.24,257.17 386.23,257.78 386.03,258.36 385.82,258.93 385.44,259.41 385.06,259.89 384.55,260.22 384.04,260.56 383.45,260.71 382.86,260.86 382.25,260.82 381.64,260.77 381.08,260.53 380.51,260.30 380.06,259.89 379.60,259.49 379.29,258.96 378.99,258.43 378.87,257.83 378.75,257.23 378.83,256.63 378.90,256.02 379.17,255.47 379.44,254.92 379.87,254.49 380.29,254.05 380.84,253.78 381.38,253.50 381.99,253.42 382.59,253.33 383.19,253.44 383.79,253.55 384.33,253.85 384.86,254.14 385.27,254.59 385.68,255.04 385.93,255.60 386.18,256.16 386.23,256.77 386.28,257.38 386.14,257.97 386.00,258.57 386.00,258.56 386.00,258.56 384.84,260.87 383.68,263.17 381.49,268.76 379.30,274.35 376.80,280.56 374.31,286.77 373.37,289.25 372.43,291.73 371.64,294.88 370.86,298.03 369.94,304.13 369.01,310.22 367.42,316.80 365.82,323.38 364.25,328.45 362.68,333.52 359.53,342.16 356.39,350.81 352.28,359.64 348.18,368.47 342.96,377.67 337.74,386.88 331.99,396.56 326.24,406.24 321.86,413.96 317.48,421.67 313.57,428.03 309.66,434.40 307.32,436.27 304.99,438.14 305.03,438.52 305.08,438.90 305.03,439.27 304.98,439.65 304.84,440.00 304.71,440.36 304.49,440.67 304.27,440.98 303.99,441.23 303.70,441.48 303.36,441.65 303.03,441.82 302.66,441.91 302.29,442.00 301.91,442.00 301.53,441.99 301.16,441.90 300.80,441.81 300.46,441.63 300.13,441.45 299.85,441.20 299.56,440.94 299.35,440.63 299.14,440.31 299.01,439.96 298.87,439.60 297.79,438.36 296.71,437.11 295.51,432.19 294.30,427.28 292.75,416.23 291.19,405.17 288.63,381.89 286.07,358.61 283.84,316.90 281.61,275.20 281.78,255.18 281.95,235.16 282.37,211.94 282.78,188.73 282.81,181.17 282.84,173.60 283.11,173.34 283.38,173.08 283.70,172.90 284.02,172.71 284.38,172.60 284.74,172.50 285.11,172.48 285.48,172.46 285.85,172.54 286.22,172.61 286.55,172.77 286.89,172.93 287.18,173.16 287.47,173.40 287.70,173.70 287.92,173.99 288.07,174.34 288.22,174.68 288.28,175.05 288.34,175.42 288.31,175.79 288.28,176.16 288.17,176.52 288.05,176.87 287.85,177.19 287.65,177.50 285.09,179.25 282.52,180.99 276.26,188.72 270.00,196.46 257.55,209.08 245.11,221.70 226.12,238.91 207.13,256.12 187.41,270.51 167.69,284.90 155.85,291.02 144.00,297.15 139.19,297.33 134.38,297.52 131.17,293.93 127.97,290.35 126.90,283.62 125.82,276.89 125.65,263.81 125.47,250.73 126.70,234.77 127.94,218.82 130.87,198.12 133.80,177.42 138.04,160.25 142.28,143.07 145.94,137.41 149.60,131.74 149.71,131.43 149.82,131.12 150.00,130.85 150.18,130.57 150.42,130.35 150.66,130.13 150.95,129.97 151.23,129.81 151.55,129.72 151.87,129.63 152.20,129.63 152.53,129.62 152.85,129.69 153.17,129.76 153.47,129.91 153.76,130.05 154.01,130.27 154.26,130.48 154.46,130.75 154.65,131.01 154.77,131.32 154.90,131.62 154.94,131.95 154.99,132.27 154.96,132.60 154.93,132.93 153.50,139.66 152.08,146.39 148.68,161.78 145.28,177.18 137.29,202.96 129.30,228.74 114.30,267.61 99.29,306.48 75.25,357.92 51.20,409.36 34.59,432.19 17.97,455.01 10.60,459.82 3.23,464.63 0.69,463.56 -1.85,462.50 -1.99,459.14 -2.14,455.78 0.15,452.17 2.45,448.55 7.85,440.63 13.25,432.71 25.33,418.56 37.41,404.40 60.27,383.19 83.14,361.98 118.38,335.51 153.62,309.04 200.24,278.76 246.86,248.47 269.71,236.93 292.56,225.39 325.27,210.17 357.99,194.95 379.22,187.38 400.46,179.81 415.71,177.40 430.96,174.99 437.78,176.29 444.59,177.60 447.13,180.18 449.67,182.77 450.91,186.05 452.16,189.32 451.67,192.62 451.17,195.91 449.88,202.24 448.58,208.56 445.13,217.00 441.68,225.44 433.55,242.57 425.41,259.69 413.45,278.60 401.49,297.51 383.72,322.91 365.96,348.30 353.33,367.52 340.70,386.74 323.40,413.59 306.09,440.44 291.29,463.08 276.49,485.71 266.22,499.10 255.95,512.49 251.80,514.35 247.65,516.20 244.09,513.08 240.53,509.96 236.35,503.71 232.18,497.46 226.28,486.76 220.39,476.05 208.70,454.14 197.01,432.23 183.03,406.09 169.05,379.95 152.96,348.79 136.87,317.63 120.11,284.87 103.35,252.12 86.67,217.84 69.99,183.57 57.28,156.48 44.57,129.39 33.10,102.49 21.63,75.58 14.20,55.12 6.76,34.67 2.83,22.22 -1.09,9.78 -2.07,5.20 -3.06,0.61 -3.09,0.23 -3.12,-0.13 -3.05,-0.50 -2.99,-0.88 -2.84,-1.22 -2.69,-1.57 -2.47,-1.87 -2.24,-2.17 -1.95,-2.41 -1.65,-2.64 -1.31,-2.80 -0.97,-2.96 -0.60,-3.04 -0.23,-3.11 0.13,-3.09 0.51,-3.08 0.87,-2.97 1.23,-2.86 1.56,-2.67 1.88,-2.49 2.15,-2.22 2.42,-1.96 2.62,-1.64 2.82,-1.32 2.94,-0.97 3.06,-0.61 3.06,-0.61 L 3.06,-0.61 Z"></path></g><g transform="translate(343.5999755859375 130.80001831054688) rotate(0 100.80001831054688 190.40000915527344)" stroke="none"><path fill="#1e1e1e" d="M 3.12,0 Q 3.12,0 3.05,5.74 2.98,11.49 3.16,20.32 3.34,29.15 7.47,41.74 11.60,54.32 17.11,63.42 22.61,72.52 35.62,80.26 48.63,88.00 71.38,91.77 94.14,95.54 121.01,95.12 147.88,94.71 168.26,92.71 188.64,90.72 201.65,88.73 214.66,86.73 220.46,85.89 226.25,85.04 228.68,84.66 231.10,84.28 231.48,84.27 231.86,84.26 232.23,84.34 232.60,84.42 232.94,84.59 233.28,84.76 233.57,85.00 233.86,85.24 234.08,85.55 234.31,85.86 234.45,86.21 234.59,86.56 234.65,86.94 234.71,87.31 234.67,87.69 234.63,88.07 234.51,88.42 234.38,88.78 234.17,89.10 233.97,89.42 233.69,89.68 233.41,89.94 233.08,90.12 232.75,90.30 232.38,90.40 232.02,90.50 224.75,102.70 217.48,114.90 197.77,136.51 178.07,158.11 161.67,175.06 145.28,192.01 128.42,208.88 111.56,225.74 103.11,236.25 94.67,246.76 91.13,250.11 87.60,253.46 90.16,255.42 92.73,257.38 99.38,257.45 106.04,257.51 121.22,256.75 136.41,255.99 145.24,255.68 154.08,255.36 161.76,256.40 169.44,257.44 175.54,260.55 181.65,263.65 186.40,267.86 191.14,272.07 198.67,280.56 206.20,289.05 215.41,301.44 224.62,313.83 230.16,322.60 235.71,331.36 238.84,339.17 241.98,346.99 244.21,353.98 246.44,360.98 248.50,366.13 250.55,371.28 252.03,373.46 253.50,375.65 255.78,375.73 258.07,375.82 258.54,375.93 259.02,376.05 259.46,376.27 259.89,376.50 260.26,376.82 260.63,377.15 260.91,377.55 261.19,377.95 261.37,378.41 261.54,378.87 261.60,379.36 261.67,379.84 261.61,380.33 261.55,380.82 261.38,381.28 261.21,381.74 260.93,382.14 260.65,382.55 260.29,382.88 259.92,383.20 259.49,383.43 259.05,383.66 258.58,383.78 258.10,383.90 257.61,383.90 257.12,383.91 253.46,383.79 249.81,383.67 225.59,383.54 201.37,383.40 174.82,380.53 148.26,377.66 104.61,365.78 60.96,353.91 26.81,335.62 -7.34,317.34 -22.65,303.96 -37.96,290.58 -32.28,255.10 -26.60,219.62 2.56,176.30 31.73,132.98 44.04,114.78 56.36,96.59 56.66,96.27 56.96,95.95 57.35,95.74 57.74,95.54 58.17,95.46 58.60,95.39 59.04,95.46 59.47,95.53 59.86,95.74 60.25,95.94 60.55,96.26 60.85,96.58 61.04,96.98 61.22,97.38 61.27,97.81 61.32,98.25 61.22,98.68 61.13,99.11 60.90,99.48 60.68,99.86 60.34,100.14 60.01,100.43 59.60,100.59 59.19,100.75 58.76,100.78 58.32,100.80 57.90,100.69 57.47,100.57 57.11,100.32 56.74,100.08 56.48,99.73 56.21,99.38 56.07,98.96 55.93,98.55 55.93,98.11 55.93,97.67 56.07,97.25 56.21,96.84 56.47,96.49 56.74,96.14 57.10,95.89 57.47,95.65 57.89,95.53 58.31,95.41 58.75,95.43 59.19,95.46 59.60,95.62 60.00,95.78 60.34,96.06 60.67,96.35 60.90,96.72 61.13,97.10 61.22,97.53 61.32,97.96 61.27,98.39 61.22,98.83 61.04,99.23 60.86,99.63 60.86,99.63 60.86,99.63 48.57,117.84 36.28,136.05 7.55,178.40 -21.17,220.75 -27.25,254.79 -33.32,288.83 -18.93,300.50 -4.54,312.17 29.02,330.10 62.59,348.02 105.76,359.65 148.94,371.27 175.16,373.90 201.37,376.54 225.55,376.37 249.74,376.21 253.90,376.01 258.07,375.82 258.54,375.93 259.02,376.05 259.46,376.27 259.89,376.50 260.26,376.82 260.63,377.15 260.91,377.55 261.19,377.95 261.37,378.41 261.54,378.87 261.60,379.36 261.67,379.84 261.61,380.33 261.55,380.82 261.38,381.28 261.21,381.74 260.93,382.14 260.65,382.55 260.29,382.88 259.92,383.20 259.49,383.43 259.05,383.66 258.58,383.78 258.10,383.90 257.61,383.90 257.12,383.91 256.58,383.73 256.05,383.55 252.08,381.12 248.11,378.68 246.89,375.96 245.66,373.23 243.54,367.91 241.42,362.58 239.25,355.76 237.07,348.94 234.16,341.56 231.24,334.17 225.80,325.58 220.36,316.99 211.30,304.78 202.23,292.57 194.91,284.31 187.58,276.04 183.36,272.22 179.14,268.39 173.87,265.58 168.60,262.77 161.44,261.80 154.27,260.82 145.48,261.18 136.70,261.53 121.25,262.35 105.81,263.17 97.75,262.63 89.69,262.08 86.87,259.36 84.04,256.63 87.31,250.05 90.57,243.46 99.20,232.74 107.83,222.02 124.66,205.19 141.49,188.35 157.83,171.45 174.17,154.56 193.59,133.32 213.01,112.09 222.06,98.18 231.10,84.28 231.48,84.27 231.86,84.26 232.23,84.34 232.60,84.42 232.94,84.59 233.28,84.75 233.57,85.00 233.86,85.24 234.08,85.55 234.31,85.86 234.45,86.21 234.59,86.56 234.65,86.94 234.71,87.31 234.67,87.69 234.63,88.07 234.51,88.42 234.38,88.78 234.17,89.10 233.97,89.42 233.69,89.68 233.41,89.94 233.08,90.12 232.75,90.30 232.38,90.40 232.02,90.50 229.52,90.39 227.02,90.27 221.24,91.13 215.46,91.98 202.31,94.00 189.16,96.02 168.56,98.05 147.96,100.07 120.61,100.47 93.25,100.86 69.60,96.79 45.94,92.71 32.02,84.16 18.09,75.60 12.18,65.85 6.26,56.10 1.92,42.74 -2.42,29.37 -2.70,20.43 -2.98,11.50 -3.05,5.75 -3.12,0 -3.07,-0.37 -3.03,-0.74 -2.90,-1.09 -2.76,-1.45 -2.55,-1.76 -2.33,-2.07 -2.05,-2.32 -1.77,-2.57 -1.44,-2.74 -1.10,-2.92 -0.74,-3.01 -0.37,-3.10 0.00,-3.10 0.37,-3.10 0.74,-3.01 1.10,-2.92 1.44,-2.74 1.77,-2.57 2.05,-2.32 2.33,-2.07 2.55,-1.76 2.76,-1.45 2.90,-1.09 3.03,-0.74 3.07,-0.37 3.12,0.00 3.12,0.00 L 3.12,0 Z"></path></g><g transform="translate(486.79998779296875 34.80000305175781) rotate(0 -14.39996337890625 133.20000457763672)" stroke="none"><path fill="#1e1e1e" d="M 2.75,-1.49 Q 2.75,-1.49 5.68,4.05 8.61,9.61 10.75,13.58 12.90,17.56 14.61,23.70 16.32,29.83 17.04,34.07 17.76,38.31 17.11,45.50 16.46,52.68 10.97,63.40 5.48,74.12 -3.88,84.50 -13.25,94.87 -19.98,101.30 -26.70,107.72 -30.05,109.86 -33.40,112.00 0.78,99.42 34.97,86.84 54.59,80.65 74.21,74.46 85.83,71.37 97.45,68.28 103.49,68.85 109.54,69.42 111.87,74.51 114.20,79.59 112.27,90.26 110.35,100.92 103.20,117.18 96.06,133.44 88.61,145.90 81.17,158.36 75.89,165.53 70.62,172.71 68.20,175.82 65.79,178.93 64.92,180.11 64.06,181.30 63.78,181.58 63.50,181.85 63.16,182.05 62.82,182.24 62.44,182.35 62.06,182.47 61.67,182.48 61.27,182.50 60.89,182.42 60.50,182.34 60.15,182.18 59.79,182.01 59.49,181.76 59.18,181.51 58.94,181.20 58.71,180.89 58.55,180.52 58.40,180.16 58.33,179.77 58.27,179.39 58.30,178.99 58.33,178.60 58.45,178.23 58.58,177.86 58.79,177.52 59.00,177.19 57.34,172.58 55.68,167.96 54.52,158.32 53.37,148.68 53.35,136.23 53.33,123.77 54.49,113.57 55.65,103.36 56.60,98.39 57.55,93.43 57.63,93.12 57.70,92.81 57.85,92.52 57.99,92.24 58.21,91.99 58.42,91.75 58.68,91.57 58.94,91.38 59.24,91.27 59.54,91.15 59.86,91.11 60.18,91.07 60.50,91.10 60.82,91.14 61.12,91.25 61.42,91.36 61.68,91.54 61.95,91.72 62.16,91.96 62.38,92.20 62.53,92.49 62.68,92.77 62.76,93.08 62.84,93.39 62.84,93.71 62.85,94.03 66.20,95.79 69.55,97.55 82.28,116.36 95.00,135.16 100.51,143.25 106.02,151.33 108.70,153.78 111.39,156.23 111.55,156.54 111.71,156.85 111.80,157.19 111.88,157.54 111.88,157.89 111.87,158.24 111.79,158.58 111.70,158.92 111.54,159.23 111.37,159.54 111.14,159.80 110.90,160.06 110.61,160.26 110.32,160.45 110.00,160.58 109.67,160.70 109.32,160.74 108.97,160.78 108.62,160.74 108.27,160.69 107.95,160.57 107.62,160.44 107.33,160.24 107.04,160.04 106.81,159.77 106.58,159.51 109.30,152.52 112.02,145.53 115.16,134.17 118.29,122.81 122.19,108.46 126.09,94.12 130.06,81.31 134.03,68.49 136.40,60.55 138.77,52.60 139.54,50.07 140.32,47.54 140.47,47.20 140.62,46.86 140.85,46.56 141.08,46.26 141.37,46.02 141.66,45.79 142.00,45.63 142.34,45.47 142.71,45.40 143.08,45.33 143.45,45.35 143.83,45.36 144.19,45.47 144.55,45.58 144.87,45.77 145.20,45.96 145.46,46.22 145.73,46.48 145.93,46.80 146.13,47.12 146.25,47.48 146.36,47.83 146.39,48.21 146.42,48.58 146.35,48.95 146.29,49.32 143.53,57.81 140.78,66.29 139.03,71.39 137.27,76.49 136.76,78.98 136.25,81.48 136.07,81.84 135.90,82.20 135.65,82.52 135.39,82.83 135.07,83.07 134.75,83.31 134.38,83.47 134.01,83.63 133.61,83.70 133.21,83.76 132.81,83.73 132.41,83.70 132.02,83.57 131.64,83.44 131.30,83.23 130.96,83.01 130.68,82.72 130.40,82.43 130.20,82.08 130.00,81.73 129.88,81.34 129.77,80.96 129.76,80.56 129.74,80.15 129.82,79.76 129.90,79.36 131.91,76.34 133.91,73.32 142.29,65.10 150.66,56.88 157.04,52.01 163.42,47.15 172.53,41.80 181.63,36.46 187.86,36.39 194.10,36.32 197.08,39.60 200.05,42.87 201.18,51.42 202.31,59.97 201.52,75.53 200.74,91.08 199.00,110.53 197.27,129.97 195.84,146.26 194.41,162.55 193.56,171.77 192.72,181.00 192.36,188.09 192.00,195.17 191.84,200.25 191.68,205.33 192.05,208.29 192.41,211.26 192.12,213.79 191.82,216.32 187.26,218.92 182.71,221.51 165.91,225.86 149.12,230.20 106.09,237.30 63.07,244.39 -2.18,250.37 -67.43,256.36 -114.00,260.03 -160.57,263.71 -180.35,265.26 -200.13,266.81 -200.58,266.78 -201.02,266.74 -201.43,266.56 -201.84,266.38 -202.17,266.09 -202.50,265.79 -202.72,265.40 -202.94,265.01 -203.02,264.57 -203.11,264.14 -203.05,263.69 -202.98,263.25 -202.79,262.85 -202.59,262.45 -202.27,262.14 -201.96,261.83 -201.56,261.63 -201.16,261.43 -200.71,261.37 -200.27,261.31 -199.83,261.40 -199.40,261.48 -199.01,261.70 -198.62,261.92 -198.32,262.25 -198.03,262.59 -197.85,263.00 -197.68,263.41 -197.64,263.85 -197.61,264.29 -197.71,264.73 -197.82,265.16 -198.06,265.53 -198.30,265.91 -198.65,266.19 -199.00,266.47 -199.42,266.62 -199.84,266.77 -200.28,266.78 -200.73,266.79 -201.16,266.66 -201.58,266.53 -201.94,266.27 -202.30,266.01 -202.56,265.65 -202.82,265.28 -202.95,264.86 -203.08,264.43 -203.07,263.99 -203.06,263.54 -202.90,263.12 -202.75,262.70 -202.47,262.36 -202.19,262.01 -201.81,261.77 -201.44,261.53 -201.00,261.43 -200.57,261.32 -200.57,261.32 -200.57,261.32 -180.79,259.72 -161.01,258.12 -114.49,254.38 -67.96,250.64 -2.93,244.59 62.10,238.54 104.83,231.38 147.56,224.23 163.70,219.94 179.84,215.66 183.06,213.63 186.28,211.59 186.32,208.38 186.35,205.17 186.49,200.04 186.64,194.91 186.98,187.71 187.33,180.52 188.15,171.30 188.96,162.08 190.35,145.78 191.75,129.49 193.42,110.15 195.09,90.81 195.81,75.72 196.54,60.63 195.81,53.36 195.08,46.08 193.69,43.52 192.29,40.95 188.25,41.21 184.20,41.47 175.61,46.64 167.02,51.81 160.99,56.52 154.96,61.24 147.12,69.07 139.27,76.91 137.76,79.19 136.25,81.47 136.07,81.84 135.90,82.20 135.65,82.52 135.39,82.83 135.07,83.07 134.75,83.31 134.38,83.47 134.01,83.63 133.61,83.70 133.21,83.76 132.81,83.73 132.41,83.70 132.02,83.57 131.64,83.44 131.30,83.23 130.96,83.01 130.68,82.72 130.40,82.43 130.20,82.08 130.00,81.73 129.88,81.35 129.77,80.96 129.76,80.56 129.74,80.15 129.82,79.76 129.90,79.36 130.84,77.01 131.78,74.67 133.46,69.47 135.14,64.27 137.73,55.91 140.32,47.54 140.47,47.20 140.62,46.86 140.85,46.56 141.07,46.26 141.37,46.02 141.66,45.79 142.00,45.63 142.34,45.47 142.71,45.40 143.08,45.33 143.45,45.34 143.83,45.36 144.19,45.47 144.55,45.58 144.87,45.77 145.20,45.96 145.46,46.22 145.73,46.48 145.93,46.80 146.13,47.12 146.25,47.48 146.36,47.83 146.39,48.21 146.42,48.58 146.35,48.95 146.29,49.32 145.05,51.72 143.81,54.11 141.43,62.08 139.06,70.05 135.12,82.78 131.17,95.50 127.28,109.86 123.38,124.22 120.08,136.02 116.78,147.81 114.08,152.02 111.39,156.23 111.55,156.54 111.71,156.85 111.80,157.19 111.88,157.53 111.88,157.89 111.87,158.24 111.79,158.58 111.70,158.92 111.54,159.23 111.37,159.54 111.14,159.80 110.90,160.06 110.61,160.26 110.33,160.45 110.00,160.58 109.67,160.70 109.32,160.74 108.97,160.78 108.62,160.74 108.27,160.69 107.95,160.57 107.62,160.44 107.33,160.24 107.04,160.04 106.81,159.77 106.58,159.51 104.12,156.92 101.66,154.33 96.12,146.23 90.59,138.12 78.42,119.92 66.25,101.72 61.90,97.57 57.55,93.43 57.63,93.12 57.70,92.81 57.85,92.52 57.99,92.24 58.20,91.99 58.42,91.75 58.68,91.57 58.94,91.38 59.24,91.27 59.54,91.15 59.86,91.11 60.18,91.07 60.50,91.10 60.82,91.14 61.12,91.25 61.42,91.36 61.68,91.54 61.95,91.72 62.16,91.96 62.38,92.20 62.53,92.48 62.68,92.77 62.76,93.08 62.84,93.39 62.84,93.71 62.85,94.03 61.91,99.00 60.97,103.96 59.85,113.86 58.73,123.77 58.75,135.90 58.78,148.04 59.90,157.29 61.02,166.55 62.54,173.93 64.06,181.30 63.78,181.58 63.50,181.85 63.16,182.05 62.82,182.24 62.44,182.35 62.06,182.47 61.67,182.48 61.28,182.50 60.89,182.42 60.50,182.34 60.15,182.18 59.79,182.01 59.49,181.76 59.18,181.51 58.94,181.20 58.71,180.89 58.55,180.52 58.40,180.16 58.33,179.78 58.27,179.39 58.30,179.00 58.33,178.60 58.45,178.23 58.58,177.86 58.79,177.52 58.99,177.19 60.21,176.28 61.42,175.38 63.88,172.47 66.35,169.57 71.47,162.60 76.60,155.62 83.88,143.45 91.17,131.28 98.12,115.57 105.07,99.85 107.09,90.49 109.11,81.12 107.74,76.95 106.36,72.79 102.60,73.24 98.84,73.68 87.39,76.80 75.94,79.91 56.44,86.15 36.94,92.40 1.41,104.79 -34.11,117.18 -35.95,115.17 -37.79,113.15 -34.10,108.50 -30.41,103.85 -23.83,97.55 -17.25,91.24 -8.29,81.40 0.66,71.57 5.82,61.79 10.99,52.02 11.59,45.61 12.19,39.20 11.54,35.27 10.88,31.35 9.35,25.84 7.82,20.33 5.58,16.40 3.34,12.46 0.29,6.98 -2.75,1.49 -2.89,1.14 -3.03,0.79 -3.08,0.41 -3.13,0.04 -3.09,-0.33 -3.05,-0.71 -2.92,-1.06 -2.79,-1.42 -2.58,-1.73 -2.37,-2.05 -2.09,-2.30 -1.81,-2.55 -1.48,-2.73 -1.15,-2.91 -0.78,-3.01 -0.41,-3.11 -0.04,-3.11 0.33,-3.12 0.70,-3.03 1.07,-2.94 1.41,-2.77 1.74,-2.60 2.03,-2.35 2.32,-2.11 2.54,-1.80 2.75,-1.49 2.75,-1.49 L 2.75,-1.49 Z"></path></g><g transform="translate(377.20001220703125 160.39999389648438) rotate(0 206.4000244140625 95.20001983642578)" stroke="none"><path fill="#1e1e1e" d="M 1.33,-2.93 Q 1.33,-2.93 4.14,-1.74 6.95,-0.54 11.34,8.24 15.72,17.03 19.13,25.15 22.54,33.28 26.27,43.22 30.01,53.16 34.56,65.66 39.12,78.16 43.80,91.54 48.49,104.92 51.65,116.92 54.81,128.92 56.84,139.12 58.87,149.31 59.96,157.84 61.06,166.38 61.97,172.94 62.88,179.50 64.60,185.54 66.32,191.59 70.05,196.81 73.79,202.03 82.87,206.59 91.95,211.16 100.89,214.33 109.82,217.51 125.68,220.45 141.54,223.38 160.36,227.42 179.18,231.46 188.67,234.36 198.17,237.27 202.95,240.90 207.73,244.53 208.21,250.27 208.68,256.02 204.44,262.91 200.19,269.80 194.10,275.25 188.00,280.70 180.00,285.36 172.01,290.01 160.62,293.65 149.23,297.29 138.54,298.84 127.85,300.38 119.51,300.24 111.16,300.10 107.07,296.44 102.98,292.78 101.71,285.91 100.44,279.04 107.90,256.07 115.35,233.10 142.99,185.38 170.63,137.66 204.96,92.28 239.29,46.90 276.96,9.13 314.62,-28.62 342.39,-52.50 370.15,-76.38 381.92,-86.51 393.69,-96.63 394.05,-96.85 394.41,-97.07 394.83,-97.16 395.24,-97.26 395.66,-97.21 396.09,-97.17 396.47,-96.99 396.86,-96.82 397.17,-96.53 397.48,-96.24 397.68,-95.86 397.88,-95.49 397.95,-95.07 398.03,-94.65 397.96,-94.23 397.89,-93.81 397.70,-93.43 397.50,-93.06 397.19,-92.76 396.89,-92.47 396.50,-92.29 396.12,-92.11 395.69,-92.06 395.27,-92.01 394.86,-92.10 394.44,-92.19 394.08,-92.41 393.71,-92.62 393.43,-92.94 393.16,-93.27 393.00,-93.66 392.84,-94.05 392.81,-94.48 392.79,-94.90 392.90,-95.31 393.01,-95.72 393.24,-96.08 393.48,-96.43 393.82,-96.69 394.15,-96.95 394.56,-97.09 394.96,-97.22 395.38,-97.23 395.81,-97.23 396.21,-97.10 396.62,-96.96 396.96,-96.71 397.30,-96.45 397.54,-96.10 397.78,-95.75 397.89,-95.34 398.01,-94.93 397.99,-94.51 397.97,-94.08 397.81,-93.69 397.66,-93.29 397.38,-92.97 397.11,-92.64 397.11,-92.64 397.11,-92.64 385.34,-82.52 373.58,-72.40 345.96,-48.66 318.34,-24.91 280.91,12.57 243.47,50.07 209.32,95.19 175.17,140.30 147.75,187.53 120.33,234.77 112.97,256.64 105.61,278.50 106.28,284.05 106.94,289.60 109.57,292.43 112.19,295.25 119.66,295.21 127.12,295.18 137.39,293.73 147.66,292.28 158.53,288.87 169.40,285.46 176.97,281.10 184.54,276.75 190.18,271.82 195.81,266.90 199.70,261.27 203.58,255.65 203.70,251.44 203.81,247.22 200.18,244.74 196.54,242.26 187.31,239.44 178.07,236.61 159.32,232.59 140.57,228.57 124.32,225.53 108.06,222.49 98.79,219.17 89.52,215.86 79.59,210.57 69.66,205.27 65.44,199.21 61.23,193.14 59.40,186.69 57.58,180.25 56.64,173.66 55.70,167.07 54.61,158.73 53.52,150.39 51.49,140.36 49.46,130.34 46.31,118.57 43.17,106.80 38.43,93.48 33.69,80.16 29.05,67.73 24.42,55.30 20.61,45.53 16.79,35.76 13.26,27.82 9.73,19.88 6.45,12.51 3.16,5.14 0.91,4.04 -1.33,2.93 -1.66,2.73 -1.99,2.52 -2.27,2.25 -2.54,1.97 -2.74,1.64 -2.94,1.31 -3.05,0.94 -3.17,0.56 -3.19,0.18 -3.21,-0.20 -3.14,-0.58 -3.07,-0.97 -2.91,-1.32 -2.75,-1.67 -2.51,-1.98 -2.26,-2.28 -1.96,-2.52 -1.65,-2.76 -1.30,-2.92 -0.94,-3.07 -0.56,-3.14 -0.18,-3.21 0.20,-3.19 0.59,-3.16 0.96,-3.05 1.33,-2.93 1.33,-2.93 L 1.33,-2.93 Z"></path></g><g transform="translate(334.79998779296875 38) rotate(0 180.79998779296875 149.20001220703125)" stroke="none"><path fill="#1e1e1e" d="M 2.54,-1.80 Q 2.54,-1.80 6.40,3.75 10.25,9.31 13.01,13.28 15.77,17.25 35.77,33.17 55.76,49.08 89.94,68.27 124.12,87.46 154.27,101.38 184.42,115.30 216.70,126.71 248.99,138.13 272.58,145.05 296.17,151.97 310.09,155.60 324.02,159.24 333.50,162.43 342.98,165.62 348.40,168.73 353.83,171.84 356.89,176.50 359.95,181.17 361.22,186.43 362.50,191.69 360.39,199.20 358.29,206.71 348.63,217.23 338.96,227.76 313.07,242.84 287.17,257.92 265.59,267.74 244.01,277.56 223.25,284.29 202.49,291.02 188.98,293.90 175.48,296.77 164.52,296.35 153.57,295.93 145.90,290.39 138.23,284.86 134.20,275.01 130.16,265.17 128.53,255.18 126.90,245.18 126.23,231.25 125.55,217.31 124.13,206.03 122.70,194.75 120.74,186.61 118.78,178.46 116.60,172.55 114.42,166.65 112.31,160.60 110.21,154.55 109.27,148.69 108.34,142.83 112.19,132.48 116.04,122.14 133.78,104.25 151.52,86.36 166.85,73.57 182.18,60.77 202.39,48.58 222.60,36.39 235.55,29.39 248.49,22.39 254.40,18.98 260.30,15.58 262.72,13.93 265.13,12.28 265.59,12.11 266.06,11.93 266.56,11.91 267.05,11.90 267.53,12.04 268.01,12.18 268.41,12.47 268.82,12.75 269.11,13.16 269.41,13.56 269.56,14.03 269.71,14.51 269.70,15.00 269.69,15.50 269.52,15.97 269.35,16.44 269.04,16.83 268.74,17.22 268.32,17.49 267.90,17.76 267.42,17.88 266.94,18.01 266.44,17.97 265.95,17.93 265.49,17.74 265.03,17.55 264.66,17.22 264.28,16.89 264.04,16.46 263.79,16.03 263.69,15.54 263.59,15.05 263.66,14.56 263.72,14.07 263.94,13.62 264.15,13.17 264.50,12.82 264.85,12.46 265.29,12.24 265.74,12.01 266.23,11.94 266.72,11.87 267.21,11.96 267.70,12.05 268.14,12.29 268.57,12.53 268.91,12.90 269.24,13.27 269.44,13.72 269.64,14.18 269.69,14.67 269.73,15.17 269.61,15.65 269.50,16.14 269.23,16.56 268.97,16.98 268.58,17.29 268.20,17.61 268.20,17.61 268.20,17.61 265.56,18.87 262.93,20.13 256.96,23.57 250.99,27.01 238.15,33.95 225.31,40.89 205.43,52.85 185.54,64.81 170.38,77.44 155.23,90.08 138.03,107.13 120.83,124.19 117.16,133.28 113.49,142.37 114.33,147.60 115.18,152.84 117.26,158.84 119.35,164.84 121.62,171.03 123.89,177.23 125.90,185.66 127.92,194.09 129.36,205.57 130.80,217.06 131.44,230.71 132.09,244.36 133.58,253.82 135.06,263.28 138.35,272.14 141.64,281.00 147.97,285.93 154.29,290.86 164.36,291.24 174.42,291.63 187.65,288.82 200.87,286.02 221.35,279.40 241.84,272.77 263.18,263.07 284.53,253.37 309.85,238.74 335.17,224.12 344.27,214.55 353.37,204.98 355.37,198.76 357.37,192.53 356.40,188.20 355.43,183.88 353.20,180.05 350.97,176.22 346.12,173.43 341.27,170.64 331.97,167.52 322.68,164.40 308.67,160.76 294.66,157.11 270.93,150.17 247.19,143.22 214.66,131.73 182.13,120.25 151.78,106.27 121.42,92.29 86.84,72.89 52.26,53.50 31.68,37.07 11.10,20.64 8.24,16.70 5.38,12.76 1.41,7.28 -2.54,1.80 -2.72,1.47 -2.90,1.14 -3.00,0.77 -3.09,0.41 -3.10,0.03 -3.10,-0.33 -3.02,-0.70 -2.93,-1.07 -2.76,-1.40 -2.59,-1.74 -2.34,-2.02 -2.09,-2.31 -1.79,-2.53 -1.48,-2.74 -1.13,-2.88 -0.78,-3.02 -0.41,-3.07 -0.03,-3.12 0.33,-3.08 0.71,-3.04 1.06,-2.91 1.41,-2.78 1.73,-2.57 2.04,-2.36 2.29,-2.08 2.54,-1.80 2.54,-1.80 L 2.54,-1.80 Z"></path></g></svg>