<svg version="1.1" xmlns="http://www.w3.org/2000/svg" viewBox="0 0 842.0000915527344 652.6667022705078" width="842.0000915527344" height="652.6667022705078" class="excalidraw-svg">
  <!-- svg-source:excalidraw -->
  
  <defs>
    <style class="style-fonts">
      
    </style>
    
  </defs>
  <rect x="0" y="0" width="842.0000915527344" height="652.6667022705078" fill="#ffffff"></rect><g stroke-linecap="round" transform="translate(180.66668701171875 93.33332824707031) rotate(0 119.66664123535156 108.66667175292969)"><path d="M32 0 C73.55 1.72, 111.52 0.75, 207.33 0 M32 0 C82.44 -1.68, 133 -1.21, 207.33 0 M207.33 0 C229.97 1.52, 238.11 10.33, 239.33 32 M207.33 0 C228.94 1.66, 241.59 8.43, 239.33 32 M239.33 32 C240.41 65.71, 240.01 102.78, 239.33 185.33 M239.33 32 C240.22 72.17, 241.03 113.08, 239.33 185.33 M239.33 185.33 C240.59 205.94, 228.43 215.54, 207.33 217.33 M239.33 185.33 C240.94 206.92, 230.62 216.08, 207.33 217.33 M207.33 217.33 C172.86 218.05, 134.28 217.77, 32 217.33 M207.33 217.33 C166.43 215.52, 125.56 217.1, 32 217.33 M32 217.33 C10.4 215.86, -0.66 207.98, 0 185.33 M32 217.33 C11.21 217.22, 2.07 207.2, 0 185.33 M0 185.33 C0.4 140.94, -1.24 101.25, 0 32 M0 185.33 C-1.44 148.81, -0.98 112.47, 0 32 M0 32 C-0.22 10.06, 12.13 0.33, 32 0 M0 32 C1.08 8.94, 10.55 -1.45, 32 0" stroke="#1e1e1e" stroke-width="2" fill="none"></path></g><g stroke-linecap="round" transform="translate(281.3333435058594 123.33332824707031) rotate(0 130.66665649414062 127.33335876464844)"><path d="M163.75 32 C178.04 46.65, 188.61 59.21, 228.58 96 M163.75 32 C187.94 55.34, 211.52 80.05, 228.58 96 M228.58 96 C261.15 129.25, 260.6 127.76, 228.58 160 M228.58 96 C259.27 129.61, 261.59 129.96, 228.58 160 M228.58 160 C212.97 177.41, 196.08 190.36, 163.75 222.67 M228.58 160 C209.24 178.69, 190.91 196.79, 163.75 222.67 M163.75 222.67 C132.8 254.4, 129.53 254.01, 98.25 222.67 M163.75 222.67 C132.51 255.21, 130.89 256.73, 98.25 222.67 M98.25 222.67 C75.53 203.57, 54.07 181.67, 32.75 160 M98.25 222.67 C75.8 201.84, 54.77 181.16, 32.75 160 M32.75 160 C1.63 127.78, -0.61 129.46, 32.75 96 M32.75 160 C0.38 129.08, -1.73 127.89, 32.75 96 M32.75 96 C47.59 82.34, 64.63 65.33, 98.25 32 M32.75 96 C56.65 73.32, 80.51 48.99, 98.25 32 M98.25 32 C130.97 -1.13, 130.54 1.41, 163.75 32 M98.25 32 C132.54 -1.71, 133.13 -1.42, 163.75 32" stroke="#1e1e1e" stroke-width="2" fill="none"></path></g><g stroke-linecap="round" transform="translate(12.666656494140625 10) rotate(0 366 302.00000762939453)"><path d="M461.06 9.99 C485.77 10.16, 509.57 22.94, 532.32 32.41 C555.07 41.89, 577.78 53.67, 597.57 66.85 C617.36 80.03, 635.14 94.97, 651.07 111.51 C666.99 128.04, 681.69 147.42, 693.09 166.07 C704.5 184.72, 713.14 203.22, 719.49 223.4 C725.84 243.59, 729.83 266.15, 731.19 287.16 C732.55 308.18, 731.46 328.9, 727.67 349.5 C723.88 370.1, 717.65 391.15, 708.45 410.75 C699.26 430.35, 686.64 449.51, 672.51 467.09 C658.39 484.67, 641.77 501.56, 623.68 516.23 C605.6 530.9, 585.11 543.89, 564.03 555.09 C542.95 566.3, 520.57 576.04, 497.18 583.46 C473.79 590.87, 448.83 596.18, 423.68 599.59 C398.52 602.99, 371.67 604.74, 346.25 603.89 C320.83 603.03, 295.62 599.99, 271.14 594.44 C246.67 588.9, 221.9 580.27, 199.39 570.64 C176.88 561.01, 155.7 549.93, 136.11 536.66 C116.51 523.4, 97.87 507.47, 81.8 491.06 C65.72 474.65, 51.14 456.75, 39.67 438.2 C28.2 419.65, 19.53 399.76, 12.97 379.76 C6.41 359.76, 1.63 339.13, 0.33 318.21 C-0.96 297.29, 1.05 274.91, 5.18 254.24 C9.31 233.57, 16.08 213.65, 25.12 194.2 C34.16 174.75, 45.52 155.2, 59.4 137.55 C73.28 119.9, 90.45 103.15, 108.4 88.32 C126.35 73.48, 146.06 59.97, 167.1 48.54 C188.14 37.1, 210.84 27.08, 234.63 19.72 C258.41 12.35, 284.8 7.4, 309.82 4.34 C334.85 1.28, 358.98 0.3, 384.79 1.36 C410.6 2.41, 450.94 7.74, 464.67 10.69 C478.4 13.63, 468.56 14.05, 467.16 19.05 M475.19 12.91 C500.15 14.21, 522.39 27.98, 544.31 38.05 C566.23 48.12, 587.83 59.73, 606.69 73.35 C625.56 86.96, 642.46 102.86, 657.51 119.73 C672.56 136.6, 685.93 155.53, 697 174.54 C708.07 193.54, 718.09 213.3, 723.92 233.76 C729.75 254.21, 731.93 276.37, 731.98 297.28 C732.02 318.18, 728.98 338.39, 724.19 359.17 C719.41 379.95, 713.14 402.67, 703.27 421.96 C693.4 441.25, 679.61 458.03, 664.95 474.92 C650.28 491.81, 633.62 509.01, 615.28 523.29 C596.93 537.58, 576.73 549.68, 554.89 560.62 C533.06 571.55, 508.6 581.86, 484.29 588.92 C459.97 595.99, 434.24 600.89, 409.01 602.99 C383.77 605.1, 358.18 603.81, 332.88 601.55 C307.58 599.3, 281.19 595.57, 257.21 589.45 C233.22 583.34, 211.01 574.7, 188.98 564.84 C166.96 554.98, 144.49 543.94, 125.06 530.28 C105.62 516.62, 87.36 499.86, 72.39 482.87 C57.41 465.88, 45.89 447.46, 35.22 428.32 C24.56 409.18, 14.17 388.22, 8.38 368.02 C2.6 347.82, 0.84 327.7, 0.5 307.12 C0.16 286.54, 1.41 265.05, 6.34 244.53 C11.27 224, 20.02 203.56, 30.1 183.98 C40.17 164.4, 52.37 144.17, 66.78 127.05 C81.2 109.92, 98 95.08, 116.6 81.22 C135.19 67.37, 156.29 54.7, 178.33 43.92 C200.37 33.15, 224.82 23.78, 248.85 16.58 C272.87 9.38, 297.36 3.47, 322.48 0.72 C347.61 -2.03, 374.34 -2.09, 399.58 0.07 C424.83 2.24, 461.91 10.52, 473.94 13.69 C485.98 16.86, 473.43 14.16, 471.8 19.09" stroke="#1e1e1e" stroke-width="2" fill="none"></path></g><g stroke-linecap="round" transform="translate(74.66665649414062 44) rotate(0 149 171.66666412353516)"><path d="M32 0 C109.43 -2.12, 188.47 -1.33, 266 0 M32 0 C112.67 0.6, 194.31 -0.03, 266 0 M266 0 C288.77 1.23, 297.58 12.01, 298 32 M266 0 C288.98 0.35, 298.68 12.82, 298 32 M298 32 C297.39 117.85, 299.34 205.44, 298 311.33 M298 32 C299.49 94.89, 300.7 158.84, 298 311.33 M298 311.33 C298.61 333.86, 286.13 341.96, 266 343.33 M298 311.33 C300.2 331.94, 287.62 343.14, 266 343.33 M266 343.33 C194.81 340.51, 125.47 342.94, 32 343.33 M266 343.33 C209.83 342.6, 155.08 343.98, 32 343.33 M32 343.33 C10.11 342.23, 0.31 332.65, 0 311.33 M32 343.33 C12.29 342.45, -0.21 334.46, 0 311.33 M0 311.33 C-2.94 241.86, -2.86 175.65, 0 32 M0 311.33 C-0.09 245.63, 0.99 179.93, 0 32 M0 32 C-1.1 8.95, 11.28 0.66, 32 0 M0 32 C-0.82 11.87, 11.74 0.87, 32 0" stroke="#1e1e1e" stroke-width="2" fill="none"></path></g><g transform="translate(42.666656494140625 73.33332824707031) rotate(0 0.00004999999998744897 0.00005000000000165983)" stroke="none"><path fill="#1e1e1e" d="M 3.14,-3.14 Q 3.14,-3.14 3.55,-2.55 3.97,-1.97 4.18,-1.28 4.40,-0.59 4.38,0.11 4.36,0.83 4.11,1.51 3.86,2.18 3.41,2.74 2.96,3.30 2.36,3.69 1.75,4.07 1.05,4.25 0.36,4.42 -0.35,4.36 -1.07,4.30 -1.73,4.02 -2.39,3.74 -2.92,3.26 -3.46,2.78 -3.81,2.15 -4.16,1.53 -4.30,0.82 -4.43,0.11 -4.34,-0.59 -4.24,-1.30 -3.92,-1.94 -3.60,-2.59 -3.09,-3.09 -2.59,-3.60 -1.94,-3.92 -1.30,-4.24 -0.59,-4.34 0.12,-4.43 0.82,-4.30 1.53,-4.16 2.15,-3.81 2.78,-3.46 3.26,-2.92 3.74,-2.39 4.02,-1.73 4.31,-1.07 4.36,-0.35 4.42,0.36 4.25,1.05 4.07,1.75 3.69,2.36 3.30,2.96 2.74,3.41 2.18,3.86 1.51,4.11 0.83,4.36 0.11,4.38 -0.60,4.40 -1.28,4.18 -1.97,3.97 -2.55,3.55 -3.14,3.13 -3.14,3.14 -3.14,3.14 -3.47,2.71 -3.80,2.29 -4.02,1.80 -4.24,1.32 -4.33,0.79 -4.43,0.26 -4.40,-0.26 -4.36,-0.80 -4.20,-1.31 -4.04,-1.82 -3.77,-2.28 -3.49,-2.73 -3.11,-3.11 -2.73,-3.49 -2.28,-3.77 -1.82,-4.05 -1.31,-4.20 -0.80,-4.36 -0.26,-4.40 0.26,-4.43 0.79,-4.33 1.32,-4.24 1.80,-4.02 2.29,-3.80 2.71,-3.47 3.14,-3.14 3.14,-3.14 L 3.14,-3.14 Z"></path></g><g stroke-linecap="round" transform="translate(10 10.666664123535156) rotate(0 411.0000457763672 316.0000190734863)"><path d="M32 0 C291.44 4.57, 553.39 3.33, 790 0 C814.2 -2.64, 820.56 14.13, 822 32 C823.22 231.5, 822.32 431.67, 822 600 C819.29 619.47, 809.34 628.89, 790 632 C519.39 627.03, 247.06 627.95, 32 632 C14.17 633.43, -1.32 619.31, 0 600 C1.22 482.41, 1.92 368.12, 0 32 C-2.48 7.85, 9.16 -3.33, 32 0" stroke="none" stroke-width="0" fill="#b2f2bb"></path><path d="M32 0 C202.65 1.68, 375.06 2.59, 790 0 M32 0 C282.3 2.21, 533.02 1.88, 790 0 M790 0 C811.17 -0.01, 820.46 8.99, 822 32 M790 0 C809.75 -1.59, 821.37 12.4, 822 32 M822 32 C821.53 166.5, 822.39 302.89, 822 600 M822 32 C820.74 186.95, 820.59 341.3, 822 600 M822 600 C823.56 620.23, 812.89 631.4, 790 632 M822 600 C820.1 619.74, 809.55 633.69, 790 632 M790 632 C611.76 633.38, 435.1 633.19, 32 632 M790 632 C604.36 632.79, 418.67 633.12, 32 632 M32 632 C11.42 632.2, -1.61 620.85, 0 600 M32 632 C11.48 632.26, 1.71 623.28, 0 600 M0 600 C0.01 416.29, -0.38 233.95, 0 32 M0 600 C0.38 422, 0.17 243.58, 0 32 M0 32 C-1.65 10.68, 12.6 0.95, 32 0 M0 32 C1.54 9.82, 12.39 -1.3, 32 0" stroke="#1e1e1e" stroke-width="2" fill="none"></path></g></svg>